# xmcd CD database file
#
# Track frame offsets:
#	150
#	16172
#	34367
#	53985
#	74272
#	99487
#	112597
#	139212
#	158447
#	180657
#	199625
#	220127
#
# Disc length: 3227 seconds
#
# Revision: 0
# Processed by: cddbd v1.5PL3 Copyright (c) Steve Scherf et al.
# Submitted via: cdripper 1.0.7
#
DISCID=9b0c990c
DTITLE=The King Brothers - Mo' Heat
DYEAR=2001
DGENRE=Blues
TTITLE0=Sleepy
TTITLE1=Midnight
TTITLE2=Glad to Be Back
TTITLE3=Miniskirt
TTITLE4=When You Move You Lose
TTITLE5=Baby Let Me Come Back
TTITLE6=Won't Be Gettin' None Tonight
TTITLE7=Shake It
TTITLE8=Build a Fire
TTITLE9=Plan B 
TTITLE10=Got to Be Some Change Made
TTITLE11=Girl What's Wrong
EXTD=YEAR: 2001
EXTT0=
EXTT1=
EXTT2=
EXTT3=
EXTT4=
EXTT5=
EXTT6=
EXTT7=
EXTT8=
EXTT9=
EXTT10=
EXTT11=
PLAYORDER=
